<?xml version="1.0" standalone="no"?>
<!DOCTYPE svg PUBLIC "-//W3C//DTD SVG 20010904//EN"
 "http://www.w3.org/TR/2001/REC-SVG-20010904/DTD/svg10.dtd">
<svg version="1.0" xmlns="http://www.w3.org/2000/svg"
 width="1600.000000pt" height="1000.000000pt" viewBox="0 0 1600.000000 1000.000000"
 preserveAspectRatio="xMidYMid meet">

<g transform="translate(0.000000,1000.000000) scale(0.100000,-0.100000)"
fill="#000000" stroke="none">
<path d="M15003 9993 c186 -2 488 -2 670 0 183 1 31 2 -338 2 -368 0 -518 -1
-332 -2z"/>
<path d="M13280 9562 c0 -8 26 -33 63 -61 15 -12 17 -12 11 3 -5 13 -2 15 12
9 11 -3 28 -12 38 -19 19 -13 19 -14 -5 -24 -20 -8 -17 -9 16 -4 83 12 88 27
14 43 -28 6 -70 22 -93 36 -46 27 -56 30 -56 17z"/>
<path d="M13120 9522 c0 -9 40 -47 75 -73 18 -13 19 -13 6 4 -16 20 -6 21 38
6 37 -13 39 -22 9 -37 -20 -10 -19 -10 12 -6 70 10 80 14 80 32 0 13 -10 17
-44 19 -26 1 -69 15 -105 32 -65 33 -71 35 -71 23z"/>
<path d="M13510 9480 c0 -18 54 -60 71 -55 9 3 29 0 43 -7 l27 -12 -23 -13
c-22 -12 -21 -12 12 -7 53 9 60 12 55 26 -3 7 -22 14 -42 16 -20 1 -61 16 -90
32 -29 17 -53 26 -53 20z"/>
<path d="M13120 9395 c-18 -22 0 -52 53 -89 30 -21 37 -24 24 -9 -18 21 -18
21 16 14 18 -5 42 -13 52 -18 17 -10 16 -12 -11 -27 -27 -16 -27 -17 -4 -11
14 3 40 8 58 12 24 4 32 11 32 27 0 18 -6 21 -48 22 -45 1 -98 19 -151 53 -22
14 -22 15 -5 28 10 7 13 13 7 13 -6 0 -16 -7 -23 -15z"/>
<path d="M13720 9372 c0 -8 27 -34 64 -62 13 -10 17 -10 12 -2 -8 13 -2 15 32
6 14 -4 21 -12 18 -20 -7 -18 28 -19 43 -1 13 17 5 27 -24 27 -12 0 -49 13
-81 30 -67 34 -64 33 -64 22z"/>
<path d="M8052 9309 c-31 -12 -77 -43 -112 -76 -57 -53 -60 -54 -82 -39 -30
21 -51 20 -101 -5 -96 -48 -190 -176 -191 -260 -1 -43 3 -53 40 -91 50 -51 84
-116 84 -157 0 -16 5 -33 10 -36 6 -4 45 30 87 75 43 46 130 120 196 168 150
108 207 159 246 220 50 78 40 176 -20 208 -38 19 -94 17 -157 -7z m137 -9 c17
-9 48 -67 40 -74 -127 -101 -414 -216 -538 -216 -83 0 -88 7 -49 66 64 95 176
144 212 92 l16 -23 45 52 c76 87 210 138 274 103z m-285 -334 c-4 -10 0 -13
13 -10 23 6 53 -13 37 -23 -6 -5 -10 -15 -9 -24 2 -9 -2 -16 -9 -15 -6 0 -11
-1 -11 -4 -1 -14 -191 -190 -201 -186 -6 2 -14 15 -17 28 -4 13 -14 42 -23 64
-31 72 -26 91 32 124 29 16 83 36 120 44 38 8 70 15 71 15 1 1 0 -5 -3 -13z"/>
<path d="M13127 9233 c-21 -20 -3 -54 56 -106 l63 -55 57 15 c54 15 57 18 57
47 0 22 -3 27 -9 17 -22 -34 -218 32 -215 72 2 19 1 20 -9 10z m145 -109 l32
-16 -25 -14 c-33 -18 -35 -18 -59 16 l-21 30 21 0 c11 0 35 -7 52 -16z"/>
<path d="M13890 9221 c0 -14 68 -62 72 -50 2 7 12 7 31 -2 24 -11 25 -13 9
-25 -15 -11 -13 -12 13 -5 19 4 31 15 33 27 2 16 -3 19 -29 18 -18 0 -51 10
-73 22 -44 26 -56 29 -56 15z"/>
<path d="M13268 9203 c6 -2 18 -2 25 0 6 3 1 5 -13 5 -14 0 -19 -2 -12 -5z"/>
<path d="M14280 9162 c0 -9 25 -33 48 -46 25 -15 11 14 -18 34 -16 12 -30 17
-30 12z"/>
<path d="M14430 9119 c0 -10 41 -34 53 -31 14 4 48 -19 42 -29 -10 -15 11 -10
25 6 10 12 9 16 -6 20 -11 4 -40 14 -66 25 -27 10 -48 14 -48 9z"/>
<path d="M14190 9116 c0 -3 14 -19 32 -35 21 -19 35 -26 39 -19 12 18 42 0 36
-22 -5 -18 -4 -18 19 -3 32 20 26 35 -14 39 -17 2 -46 13 -64 24 -32 19 -48
25 -48 16z"/>
<path d="M14365 9108 c11 -6 23 -16 27 -22 5 -8 11 -7 19 1 17 17 1 33 -34 33
-29 -1 -30 -2 -12 -12z"/>
<path d="M14580 9060 c0 -9 31 -30 44 -30 16 0 3 18 -19 28 -14 7 -25 8 -25 2z"/>
<path d="M14080 9039 c0 -14 31 -48 75 -80 18 -13 19 -13 6 4 -11 14 -11 17 1
17 8 0 23 -6 33 -14 16 -12 17 -16 6 -30 -12 -14 -10 -14 18 0 41 20 43 54 4
50 -28 -3 -122 37 -135 58 -5 7 -8 6 -8 -5z"/>
<path d="M14659 9018 c12 -10 26 -16 31 -13 16 10 0 30 -26 31 l-26 2 21 -20z"/>
<path d="M13290 9019 c0 -5 5 -7 10 -4 6 3 10 8 10 11 0 2 -4 4 -10 4 -5 0
-10 -5 -10 -11z"/>
<path d="M13280 8981 c0 -10 18 -35 40 -55 43 -39 55 -44 46 -21 -4 11 2 14
24 11 16 -2 36 -8 43 -15 8 -6 18 -7 23 -3 5 4 0 -3 -10 -15 -11 -13 -25 -23
-33 -23 -8 0 -11 -5 -8 -10 4 -7 14 -5 28 5 12 8 29 15 39 15 27 0 57 35 51
59 -3 12 -9 24 -14 27 -5 3 -6 -2 -3 -10 5 -13 -2 -16 -38 -16 -53 0 -98 14
-150 47 -36 22 -38 22 -38 4z"/>
<path d="M14710 8942 c0 -15 26 -33 56 -38 38 -7 44 -12 37 -32 -6 -16 -6 -16
11 0 20 21 13 38 -16 38 -11 0 -36 9 -54 21 -19 11 -34 16 -34 11z"/>
<path d="M13522 8808 c-7 -7 -12 -24 -12 -39 0 -39 133 -157 155 -139 8 7 30
20 48 29 18 9 33 25 35 37 3 19 -1 21 -46 19 -64 -4 -177 41 -177 70 0 12 9
22 25 26 21 6 22 7 5 8 -12 1 -26 -4 -33 -11z m143 -123 c19 -15 19 -15 -1
-35 -19 -20 -19 -20 -47 15 l-28 35 28 0 c15 0 37 -7 48 -15z"/>
<path d="M14780 8801 c0 -5 14 -20 32 -32 17 -13 28 -18 24 -11 -9 15 -1 15
25 1 13 -6 18 -16 15 -26 -5 -13 -4 -14 9 -3 26 22 19 47 -14 48 -16 0 -43 8
-60 17 -17 8 -31 11 -31 6z"/>
<path d="M13630 8780 c-8 -5 -12 -12 -9 -15 4 -3 12 1 19 10 14 17 11 19 -10
5z"/>
<path d="M14846 8656 c5 -13 47 -40 68 -42 6 0 16 -2 23 -2 6 -1 9 -11 6 -24
l-5 -23 17 23 c23 32 13 52 -28 52 -18 0 -42 7 -53 15 -24 18 -35 19 -28 1z"/>
<path d="M13712 8548 c-14 -14 -16 -52 -3 -76 5 -10 33 -37 63 -62 29 -24 46
-35 37 -24 -32 39 -32 44 3 44 18 0 42 -8 53 -16 20 -15 20 -16 -7 -39 -16
-13 -24 -27 -19 -30 6 -3 13 1 18 8 4 7 23 22 41 32 17 11 35 27 38 37 6 19
-21 84 -40 95 -6 4 -3 -5 7 -20 28 -44 23 -50 -40 -45 -105 7 -187 67 -135 97
9 6 12 11 7 11 -6 0 -16 -5 -23 -12z"/>
<path d="M14830 8540 c0 -15 51 -49 66 -43 22 8 45 -17 38 -41 -6 -21 -6 -21
10 -1 8 11 16 30 16 43 0 18 -5 22 -27 21 -16 -1 -45 5 -65 14 -21 9 -38 12
-38 7z"/>
<path d="M13816 8521 c-12 -5 -15 -10 -9 -14 6 -4 16 0 23 8 14 17 13 17 -14
6z"/>
<path d="M14771 8433 c27 -36 82 -73 64 -43 -8 13 -3 13 30 0 22 -8 24 -13 15
-30 -14 -27 -3 -26 19 2 26 32 16 59 -19 52 -17 -4 -42 2 -68 15 -50 26 -58
26 -41 4z"/>
<path d="M13930 8325 c-6 -8 -10 -20 -7 -27 3 -8 6 -6 6 5 1 10 11 22 24 27
15 6 17 9 6 9 -9 1 -22 -6 -29 -14z"/>
<path d="M14743 8315 c-3 -9 -3 -18 -1 -21 3 -3 8 4 11 16 6 23 -1 27 -10 5z"/>
<path d="M14014 8302 c17 -19 21 -21 28 -7 5 8 17 15 27 15 22 0 61 -40 61
-63 0 -25 -92 -23 -149 3 -24 11 -46 18 -48 16 -11 -11 11 -47 45 -72 20 -15
49 -39 64 -54 l28 -27 41 39 c37 36 41 43 36 75 -7 39 -51 93 -77 93 -9 0 -21
-5 -28 -12 -8 -8 -15 -8 -29 3 -15 11 -15 10 1 -9z m66 -113 c0 -5 4 -8 9 -4
20 12 17 -11 -3 -33 l-22 -22 -34 35 -34 35 42 0 c23 0 42 -5 42 -11z"/>
<path d="M14816 8301 c-4 -5 3 -7 14 -4 23 6 26 13 6 13 -8 0 -17 -4 -20 -9z"/>
<path d="M4962 8255 c-23 -19 -32 -37 -37 -74 -14 -100 51 -182 266 -337 70
-50 151 -120 201 -174 47 -49 88 -87 92 -83 3 3 6 18 6 32 0 37 45 128 78 159
62 58 67 106 20 194 -39 73 -133 163 -189 180 -35 10 -46 9 -68 -3 -26 -15
-28 -15 -77 29 -104 95 -231 129 -292 77z m172 -11 c32 -11 69 -37 114 -80 64
-62 68 -64 81 -44 22 32 80 27 132 -13 50 -37 112 -114 106 -131 -6 -17 -142
-12 -217 8 -128 33 -384 164 -397 202 -2 6 8 26 22 43 22 26 34 31 69 31 23 0
64 -7 90 -16z m131 -334 c-3 -5 -2 -10 4 -10 5 0 13 5 16 10 14 23 150 -7 168
-37 4 -7 15 -13 23 -13 9 0 22 -7 31 -15 17 -18 14 -47 -15 -118 -7 -15 -15
-39 -18 -53 -3 -13 -10 -26 -14 -29 -13 -8 -230 223 -230 244 0 11 8 22 18 24
9 3 18 5 20 6 2 0 0 -3 -3 -9z"/>
<path d="M14750 8272 c0 -15 40 -61 62 -73 18 -10 20 -9 15 5 -7 18 -3 19 31
10 12 -4 22 -13 22 -21 0 -13 3 -13 15 -3 9 7 15 23 13 34 -3 18 -9 20 -40 18
-22 -2 -52 5 -77 18 -23 11 -41 16 -41 12z"/>
<path d="M14865 8160 c-3 -5 -1 -10 4 -10 6 0 11 5 11 10 0 6 -2 10 -4 10 -3
0 -8 -4 -11 -10z"/>
<path d="M14690 8127 c0 -13 45 -58 85 -87 19 -14 19 -14 2 6 -21 25 -15 33
18 26 33 -6 37 -14 25 -49 l-11 -28 26 30 c15 18 24 40 22 55 -2 23 -5 25 -48
22 -32 -3 -56 3 -82 17 -26 15 -37 17 -37 8z"/>
<path d="M14206 8031 c-3 -4 6 -6 19 -3 14 2 25 6 25 8 0 8 -39 4 -44 -5z"/>
<path d="M14316 8021 c-4 -5 3 -7 14 -4 23 6 26 13 6 13 -8 0 -17 -4 -20 -9z"/>
<path d="M14191 7999 c-2 -38 24 -81 77 -126 31 -26 65 -57 74 -68 15 -17 17
-18 18 -3 0 9 14 32 30 50 21 23 30 43 30 66 0 29 -3 33 -17 26 -66 -29 -191
0 -204 46 -4 14 -7 18 -8 9z m163 -110 c22 -10 23 -14 13 -38 -6 -14 -12 -28
-14 -30 -2 -3 -19 11 -38 29 -25 24 -31 36 -22 42 17 11 32 10 61 -3z"/>
<path d="M14287 7994 c6 -15 23 -19 23 -5 0 5 -7 11 -14 14 -10 4 -13 1 -9 -9z"/>
<path d="M14590 7909 c0 -20 32 -57 78 -89 42 -30 45 -31 23 -7 -30 33 -23 42
22 27 34 -10 35 -12 26 -43 -12 -44 -12 -44 14 -5 32 46 36 68 21 103 -7 17
-13 23 -14 14 0 -34 -63 -38 -127 -9 -24 10 -43 15 -43 9z"/>
<path d="M6847 7834 c-3 -3 -50 -6 -104 -5 -105 2 -169 -13 -187 -43 -14 -22
2 -32 67 -39 78 -10 80 -15 81 -174 1 -160 -11 -207 -50 -197 -23 6 -84 -27
-84 -45 0 -5 15 -15 33 -22 41 -18 247 -16 332 3 56 12 60 15 57 39 -2 15 4
56 12 93 21 88 20 94 -9 108 -43 19 -56 -3 -53 -90 3 -69 1 -76 -22 -93 -36
-27 -92 -35 -112 -16 -8 9 -23 54 -33 101 -19 91 -17 202 5 264 11 28 16 32
50 32 55 0 70 8 70 39 0 38 -32 65 -53 45z"/>
<path d="M14507 7713 c-4 -3 -7 -11 -7 -17 0 -7 3 -7 8 0 4 7 16 14 27 17 19
5 19 5 -1 6 -11 0 -24 -2 -27 -6z"/>
<path d="M7155 7681 c-67 -41 -95 -100 -95 -199 0 -58 4 -75 29 -114 40 -62
78 -81 152 -76 144 10 230 161 170 294 -22 47 -56 74 -125 98 -64 21 -94 20
-131 -3z m147 -78 c66 -70 63 -166 -8 -222 -43 -34 -99 -28 -140 13 -28 28
-34 41 -34 78 0 75 68 158 131 158 15 0 36 -11 51 -27z"/>
<path d="M9237 7675 c-112 -77 -110 -302 4 -369 15 -9 48 -16 73 -16 120 0
206 85 206 203 0 102 -46 163 -142 192 -71 21 -98 19 -141 -10z m149 -60 c30
-20 54 -76 54 -125 0 -78 -47 -130 -117 -130 -106 0 -147 123 -71 214 45 55
94 70 134 41z"/>
<path d="M14600 7685 c-9 -11 -10 -19 -3 -26 7 -7 12 -2 15 15 6 30 5 31 -12
11z"/>
<path d="M8003 7671 c-47 -22 -98 -85 -113 -140 -29 -108 77 -251 187 -251 56
0 104 20 132 56 25 31 24 62 -1 78 -14 8 -24 4 -51 -22 -56 -55 -150 -57 -164
-4 -18 68 4 82 117 75 141 -9 167 20 113 128 -46 89 -131 120 -220 80z m139
-90 c32 -29 33 -29 14 -50 -16 -17 -31 -21 -86 -21 -81 0 -101 14 -74 55 36
54 96 61 146 16z"/>
<path d="M7805 7664 c-34 -8 -97 -10 -197 -7 -94 4 -148 2 -148 -4 0 -5 12
-20 26 -34 44 -40 113 -169 141 -261 28 -96 42 -107 80 -65 30 32 47 70 78
170 28 90 56 137 81 137 18 0 19 66 2 72 -7 2 -35 -1 -63 -8z m-75 -69 c27
-32 -15 -125 -56 -125 -46 0 -74 89 -38 124 20 20 78 21 94 1z"/>
<path d="M14491 7671 c-2 -32 43 -102 87 -137 26 -20 57 -48 68 -61 l21 -25
31 64 c28 56 30 68 21 100 -5 21 -14 40 -18 43 -5 3 -7 -4 -4 -16 4 -12 0 -25
-8 -30 -42 -26 -165 9 -186 52 -7 13 -12 18 -12 10z m158 -112 c34 -12 34 -12
25 -58 l-7 -32 -38 37 c-30 29 -36 41 -28 51 14 16 9 15 48 2z"/>
<path d="M8715 7650 c-19 -21 -19 -22 -1 -32 48 -27 89 -81 137 -178 57 -117
61 -161 18 -206 -30 -32 -47 -30 -86 8 -27 26 -37 30 -51 22 -21 -14 -27 -46
-12 -73 13 -25 80 -61 114 -61 62 0 120 91 160 254 19 78 34 113 70 166 25 37
46 72 46 78 0 6 -14 19 -32 28 -27 14 -46 15 -118 9 -111 -11 -158 -11 -196
-2 -24 6 -34 4 -49 -13z m240 -50 c27 -30 30 -99 6 -137 -12 -18 -28 -33 -36
-33 -19 0 -40 48 -49 112 -7 44 -5 48 21 62 36 20 37 20 58 -4z"/>
<path d="M10184 7656 c-71 -31 -124 -143 -111 -236 10 -75 36 -109 143 -188
58 -44 116 -97 135 -124 19 -26 39 -47 44 -47 6 -1 29 23 51 53 23 29 85 85
137 124 108 80 137 124 137 208 0 73 -17 122 -58 166 -66 70 -154 70 -226 -1
l-42 -41 -23 31 c-25 34 -92 69 -131 68 -14 0 -39 -6 -56 -13z m135 -36 c12
-6 35 -31 50 -55 l28 -44 24 37 c13 20 40 47 59 60 88 60 210 -13 210 -126 0
-25 -7 -31 -55 -51 -30 -12 -93 -29 -141 -38 -106 -18 -222 -6 -326 33 -61 23
-68 29 -68 52 1 35 31 102 58 126 40 35 103 37 161 6z m158 -315 c33 -14 62
-40 63 -57 0 -4 -7 -5 -15 -1 -9 3 -15 1 -13 -4 2 -5 -24 -39 -56 -76 l-59
-66 -61 66 c-34 37 -60 70 -58 75 1 4 -2 8 -7 8 -5 0 -7 9 -4 19 11 43 141 65
210 36z"/>
<path d="M9547 7639 c-4 -16 1 -24 28 -35 51 -21 65 -57 65 -164 0 -115 16
-155 69 -171 32 -10 45 -8 99 15 65 28 81 26 123 -11 20 -17 65 -8 74 15 4 11
-5 25 -27 44 l-33 27 -5 123 c-6 158 -19 183 -87 175 -25 -2 -51 -11 -59 -19
-13 -12 -8 -18 33 -39 43 -22 48 -28 51 -62 5 -56 -23 -142 -54 -166 -31 -25
-86 -27 -104 -6 -10 12 -11 45 -7 135 l7 119 -26 20 c-20 16 -41 21 -84 21
-50 0 -58 -3 -63 -21z"/>
<path d="M9489 7167 c-140 -86 -172 -306 -62 -428 19 -21 78 -67 131 -102 102
-67 157 -117 199 -179 14 -21 31 -38 38 -38 7 0 24 17 37 38 39 57 106 120
188 175 93 62 155 120 183 172 28 53 30 159 3 230 -64 171 -258 209 -375 73
l-34 -39 -46 47 c-57 58 -94 74 -168 74 -43 0 -68 -6 -94 -23z m188 -24 c34
-18 78 -65 109 -118 9 -16 13 -13 37 28 15 25 44 59 64 74 32 25 45 28 112 28
64 0 81 -4 108 -24 35 -26 77 -99 86 -148 6 -31 4 -34 -36 -55 -23 -12 -76
-33 -117 -47 -103 -33 -323 -41 -434 -16 -85 18 -197 61 -208 78 -14 23 15
118 50 159 57 67 147 83 229 41z m248 -415 c50 -25 55 -41 23 -75 -12 -13 -17
-23 -12 -23 5 0 -24 -35 -65 -79 l-75 -79 -79 81 c-43 45 -79 86 -80 92 -1 5
-8 16 -14 23 -19 20 -16 30 10 38 12 3 29 12 37 19 19 17 49 22 137 24 56 1
83 -4 118 -21z"/>
<path d="M13246 7096 c3 -9 -14 -25 -48 -46 -29 -17 -45 -29 -36 -26 9 2 18 1
20 -5 5 -16 78 51 78 72 0 10 -4 19 -10 19 -5 0 -7 -6 -4 -14z"/>
<path d="M13362 7045 c-28 -20 -52 -37 -52 -38 0 -2 10 -3 23 -2 24 0 83 40
91 62 8 21 -5 16 -62 -22z"/>
<path d="M13098 7007 c-38 -11 -53 -37 -20 -37 17 0 55 20 38 20 -6 0 -1 7 10
15 10 8 17 14 14 13 -3 0 -22 -5 -42 -11z"/>
<path d="M13253 6996 c-31 -10 -43 -11 -47 -2 -2 6 -5 1 -5 -10 -1 -27 13 -32
59 -23 19 3 29 7 21 8 -11 1 -10 5 4 21 10 11 16 20 14 19 -2 0 -23 -6 -46
-13z"/>
<path d="M13020 6984 c0 -14 -105 -76 -143 -83 -41 -9 -41 -25 0 -29 26 -3 32
0 27 11 -5 14 21 30 51 32 33 2 86 57 71 73 -3 3 -6 1 -6 -4z"/>
<path d="M13415 6959 c10 -28 -186 -122 -215 -104 -6 3 -10 -3 -10 -14 0 -18
6 -21 38 -21 20 0 48 -3 62 -6 21 -4 20 -3 -5 9 -30 13 -30 14 -8 25 12 7 34
17 49 22 24 9 25 9 14 -5 -22 -26 0 -16 45 20 50 42 59 59 39 76 -12 9 -13 9
-9 -2z"/>
<path d="M4078 6859 c15 -20 75 -31 105 -19 17 7 9 9 -33 9 -31 1 -62 7 -70
14 -12 10 -12 9 -2 -4z"/>
<path d="M4314 6856 c12 -10 37 -16 65 -15 l46 1 -51 8 c-29 4 -58 11 -65 15
-8 3 -5 -1 5 -9z"/>
<path d="M4230 6850 c-25 -8 -25 -8 -2 -9 13 -1 20 -5 17 -11 -8 -13 1 -13 26
0 43 23 14 37 -41 20z"/>
<path d="M4461 6845 c9 -9 23 -13 32 -9 24 9 11 24 -21 24 -24 0 -25 -2 -11
-15z"/>
<path d="M12776 6829 c-16 -10 -31 -25 -32 -34 -2 -12 3 -11 27 5 50 36 54 60
5 29z"/>
<path d="M2568 6828 c-5 -13 -236 -18 -280 -5 -34 9 -38 -10 -5 -22 37 -14 98
-21 92 -10 -4 5 22 9 62 9 50 0 64 -3 53 -11 -11 -7 -6 -8 20 -3 60 11 80 22
74 39 -7 18 -11 19 -16 3z"/>
<path d="M2630 6830 c0 -13 33 -25 90 -34 29 -4 40 -3 31 3 -11 7 -6 11 20 14
21 2 11 4 -28 5 -34 1 -73 6 -87 12 -17 6 -26 6 -26 0z"/>
<path d="M2860 6825 c-42 -10 -48 -13 -25 -14 24 -1 27 -3 15 -11 -11 -8 -7
-9 15 -4 52 12 76 24 70 34 -7 11 -3 12 -75 -5z"/>
<path d="M3866 6829 c2 -5 21 -11 42 -14 20 -4 46 -9 57 -12 15 -4 17 -2 9 6
-12 13 -116 32 -108 20z"/>
<path d="M4035 6830 c-17 -4 -22 -8 -11 -9 11 -1 16 -6 13 -15 -5 -11 -1 -11
24 1 16 8 27 19 24 24 -7 10 -7 10 -50 -1z"/>
<path d="M2980 6822 c0 -6 8 -15 18 -20 26 -14 92 -22 92 -11 0 5 23 9 52 9
l51 0 -19 -22 c-10 -13 -12 -18 -4 -11 8 6 31 15 50 20 20 5 35 16 35 24 0 8
-6 12 -15 9 -36 -11 -232 -11 -246 1 -9 8 -14 8 -14 1z"/>
<path d="M13403 6804 c3 -25 -126 -91 -194 -100 -38 -5 -49 -10 -47 -23 2 -11
20 -18 61 -23 l58 -7 65 51 c64 51 87 89 66 110 -7 7 -10 4 -9 -8z m-73 -92
c0 -5 -11 -19 -24 -31 -17 -16 -31 -21 -46 -16 -29 9 -21 25 20 40 45 16 50
17 50 7z"/>
<path d="M4550 6800 c14 -9 99 -15 89 -6 -2 2 -26 6 -54 10 -34 4 -45 3 -35
-4z"/>
<path d="M4682 6796 c10 -7 14 -16 10 -21 -4 -4 3 -1 16 6 31 19 28 29 -10 29
-30 -1 -31 -2 -16 -14z"/>
<path d="M12697 6789 c-10 -6 -25 -8 -33 -5 -8 3 -14 1 -14 -4 0 -6 0 -13 -1
-17 0 -5 14 -11 31 -14 24 -5 29 -4 21 4 -9 9 -6 16 11 29 25 19 14 24 -15 7z"/>
<path d="M3753 6768 c11 -10 27 -18 36 -18 9 0 26 -3 39 -6 18 -5 21 -3 16 10
-4 11 -19 16 -48 16 -23 0 -46 3 -52 8 -5 4 -1 -1 9 -10z"/>
<path d="M3915 6770 c-23 -6 -25 -8 -8 -9 12 0 23 -6 25 -12 5 -14 48 6 48 21
0 11 -21 11 -65 0z"/>
<path d="M3260 6758 c0 -16 79 -31 112 -21 31 9 29 10 -39 19 -40 6 -73 7 -73
2z"/>
<path d="M3468 6763 c-40 -4 -53 -23 -16 -23 21 0 21 0 2 -14 -14 -12 -8 -11
29 2 26 9 47 23 47 29 0 7 -6 12 -12 11 -7 -1 -30 -3 -50 -5z"/>
<path d="M13278 6763 c7 -3 16 -2 19 1 4 3 -2 6 -13 5 -11 0 -14 -3 -6 -6z"/>
<path d="M2015 6752 c-21 -15 -14 -31 18 -40 41 -13 129 -24 103 -13 -19 7
-18 8 5 14 35 10 82 8 99 -3 12 -8 12 -10 1 -10 -8 0 -12 -3 -9 -6 6 -6 118
24 130 35 4 3 3 13 -2 21 -9 13 -11 13 -19 0 -13 -20 -317 -22 -313 -2 2 14 1
14 -13 4z"/>
<path d="M2178 6753 c7 -3 16 -2 19 1 4 3 -2 6 -13 5 -11 0 -14 -3 -6 -6z"/>
<path d="M4820 6728 c-25 -11 -25 -11 -2 -15 12 -3 22 -10 22 -16 0 -6 7 -4
16 5 9 9 13 21 10 27 -9 13 -14 13 -46 -1z"/>
<path d="M4705 6715 c33 -16 71 -19 79 -7 2 4 -5 9 -17 9 -12 1 -38 4 -57 7
l-35 5 30 -14z"/>
<path d="M12601 6679 c-25 -16 -60 -32 -78 -35 -32 -6 -48 -34 -19 -34 8 0 23
-3 33 -6 14 -4 15 -4 4 4 -20 14 -6 30 38 42 34 9 81 45 70 54 -2 2 -24 -10
-48 -25z"/>
<path d="M3597 6693 c-26 -25 47 -58 110 -48 67 10 58 20 -20 24 -76 3 -91 7
-82 22 7 10 1 12 -8 2z"/>
<path d="M8078 6689 c-85 -9 -317 -63 -362 -85 -16 -8 -34 -14 -40 -14 -19 0
-220 -105 -287 -150 -299 -201 -530 -499 -637 -825 -61 -185 -76 -282 -77
-490 0 -104 2 -224 5 -265 l5 -75 -85 -17 c-47 -9 -111 -26 -142 -38 -125 -47
-243 -150 -308 -271 l-35 -64 0 -135 c0 -130 1 -137 31 -201 68 -144 223 -263
399 -306 146 -37 328 -27 464 24 42 16 44 16 60 -4 25 -30 104 -163 100 -166
-2 -2 -34 -22 -72 -46 -87 -56 -168 -144 -209 -229 -32 -65 -33 -71 -33 -192
0 -122 1 -127 34 -195 71 -145 225 -264 401 -311 91 -24 283 -24 370 0 155 42
279 129 370 258 l48 69 63 -70 c76 -84 140 -186 135 -215 -3 -19 2 -21 45 -24
40 -2 50 0 55 15 19 55 62 127 110 181 31 34 59 62 62 62 4 0 29 -28 56 -63
135 -173 297 -247 535 -247 213 0 344 51 477 184 92 92 129 159 146 261 15 88
-2 198 -42 281 -35 72 -122 164 -208 220 l-62 41 48 61 c26 33 55 72 65 86 21
30 36 31 132 11 140 -29 346 -11 461 42 100 46 214 143 266 228 32 52 56 126
64 200 29 280 -228 537 -563 562 -58 4 -84 10 -87 20 -4 8 -1 58 5 110 19 156
7 406 -25 543 -36 152 -58 214 -117 340 -145 306 -403 571 -709 732 -83 44
-111 55 -253 104 -183 62 -425 85 -659 63z m340 -60 c383 -42 682 -185 834
-401 22 -32 44 -55 49 -52 5 3 6 -2 3 -11 -4 -10 -2 -14 7 -10 20 6 54 -27
130 -125 102 -133 163 -239 210 -365 17 -44 35 -89 40 -100 23 -49 61 -230 70
-335 11 -119 5 -315 -11 -384 -12 -52 -32 -69 -115 -96 -38 -12 -90 -33 -113
-47 -82 -47 -94 -47 -159 4 -116 90 -207 123 -358 130 -183 8 -331 -37 -458
-141 -69 -56 -77 -64 -141 -139 -64 -75 -89 -77 -143 -10 -67 84 -107 124
-168 170 -120 91 -247 133 -404 133 -171 0 -305 -53 -435 -174 -27 -26 -54
-46 -61 -46 -7 0 -27 10 -46 23 -89 59 -195 104 -289 122 -96 18 -100 27 -107
254 -4 118 -2 200 6 246 7 39 15 86 17 105 18 141 117 381 224 547 75 115 213
269 231 257 5 -3 9 -1 9 5 0 20 120 150 181 197 237 182 645 282 997 243z
m-604 -1844 c194 -41 379 -192 480 -392 14 -29 31 -53 36 -53 5 0 22 24 36 53
92 182 240 311 424 368 98 31 257 33 340 5 74 -24 174 -81 221 -123 l39 -35
-40 -45 c-96 -109 -124 -196 -117 -357 5 -121 10 -151 28 -172 7 -8 10 -17 7
-19 -10 -11 -183 -57 -316 -84 -216 -46 -446 -65 -712 -58 -310 8 -552 44
-789 117 -90 28 -154 59 -123 60 6 0 11 3 11 8 -1 4 0 9 1 12 8 21 12 59 17
150 4 91 2 114 -17 170 -12 36 -40 91 -62 124 l-40 58 30 37 c63 77 224 164
342 184 55 9 138 6 204 -8z m-981 -66 c79 -12 203 -53 228 -75 8 -8 20 -14 26
-14 5 0 39 -27 75 -59 48 -44 74 -79 104 -138 35 -69 39 -88 42 -163 6 -141
-40 -246 -150 -345 -110 -99 -250 -148 -423 -149 -220 -1 -404 87 -509 242
-42 64 -76 166 -76 232 0 183 148 369 345 435 130 43 219 52 338 34z m3201
-15 c211 -54 363 -204 398 -391 41 -220 -136 -451 -397 -518 -292 -76 -607 49
-718 282 -30 64 -32 75 -32 178 0 109 0 111 38 180 44 80 70 110 147 169 145
111 368 150 564 100z m-1712 -1096 c3 -8 12 -9 35 -1 31 11 203 -3 203 -17 0
-4 36 -15 80 -26 48 -11 80 -24 80 -31 0 -8 14 -13 36 -13 27 0 37 -5 41 -20
3 -11 11 -20 18 -20 6 0 20 -9 30 -20 14 -15 16 -29 11 -64 -4 -24 -14 -50
-21 -56 -8 -7 -15 -18 -15 -25 0 -7 -18 -31 -40 -53 -22 -22 -40 -44 -40 -50
0 -6 -9 -14 -20 -17 -11 -3 -20 -12 -20 -18 0 -7 -18 -25 -40 -40 -22 -16 -40
-34 -40 -42 0 -7 -6 -15 -12 -18 -7 -2 -9 -8 -5 -13 5 -5 14 -1 21 9 7 9 17
17 21 17 5 0 0 -9 -10 -20 -9 -10 -27 -18 -38 -17 -11 1 -22 -4 -24 -11 -3 -8
1 -10 13 -5 14 5 13 2 -5 -16 -12 -12 -27 -19 -33 -15 -7 4 -8 3 -4 -4 4 -6
-17 -37 -47 -69 -30 -32 -68 -74 -85 -93 -17 -19 -32 -29 -32 -23 0 9 -7 10
-26 3 -16 -7 -32 -7 -44 0 -14 8 -19 6 -22 -7 -2 -11 -21 5 -60 53 -31 38 -81
93 -112 123 -35 35 -53 59 -49 70 4 12 2 13 -4 3 -7 -10 -14 -8 -28 9 -12 13
-14 19 -6 17 7 -2 16 3 18 11 4 9 0 11 -16 6 -17 -5 -20 -3 -15 10 5 11 0 18
-15 22 -11 3 -19 8 -16 12 2 4 -22 33 -55 63 -32 31 -56 59 -53 62 4 3 -3 6
-15 6 -12 0 -22 6 -22 14 0 8 -5 16 -11 18 -16 5 -34 68 -31 106 3 25 12 38
42 57 21 13 41 29 45 35 3 5 19 10 34 10 16 0 34 7 41 15 7 8 21 15 32 15 10
0 35 8 56 19 20 10 66 22 102 25 36 4 72 11 80 16 21 14 88 12 92 -2z m-1025
-107 c80 -64 211 -151 363 -241 198 -117 343 -223 355 -261 10 -32 -32 -109
-94 -169 -117 -115 -266 -172 -446 -173 -282 0 -513 156 -571 388 -41 165 40
353 198 458 90 59 119 59 195 -2z m2216 -17 c138 -91 214 -237 205 -394 -4
-68 -11 -92 -43 -155 -139 -274 -522 -377 -840 -225 -102 49 -235 185 -235
241 0 39 206 198 461 357 97 60 207 132 244 161 65 49 72 51 117 47 31 -2 64
-14 91 -32z m-836 -370 c-8 -8 -48 -13 -43 -6 2 4 14 8 26 9 12 1 20 0 17 -3z"/>
<path d="M7913 5880 c-133 -81 -184 -446 -93 -664 44 -103 87 -146 145 -146
70 0 133 82 171 221 21 79 24 277 5 364 -28 131 -108 245 -171 245 -14 0 -39
-9 -57 -20z"/>
<path d="M8507 5869 c-148 -122 -171 -541 -39 -732 67 -99 173 -83 232 34 85
166 83 465 -4 624 -35 65 -83 105 -125 105 -15 0 -43 -14 -64 -31z"/>
<path d="M3808 6677 c-41 -11 -51 -27 -17 -27 19 0 20 -2 8 -16 -11 -13 -4
-12 29 5 24 12 42 27 40 33 -6 16 -17 17 -60 5z"/>
<path d="M4965 6649 c-11 -4 -49 -8 -85 -8 -47 -1 -61 -4 -50 -11 9 -7 43 -8
84 -4 61 6 68 4 63 -10 -7 -19 4 -21 21 -4 27 27 5 52 -33 37z"/>
<path d="M2360 6640 c13 -8 13 -9 0 -14 -67 -21 -329 -24 -342 -4 -6 10 -10
10 -17 -2 -5 -8 -8 -17 -5 -21 4 -7 78 -24 149 -34 l30 -5 -30 14 c-29 14 -29
14 39 18 98 5 115 -15 26 -33 -31 -6 -32 -7 -7 -8 15 0 40 5 55 13 15 7 43 16
63 20 19 3 44 12 54 20 16 12 17 16 6 30 -7 9 -19 16 -25 16 -6 0 -4 -4 4 -10z"/>
<path d="M12241 6573 c-27 -18 -30 -23 -14 -23 18 0 61 36 52 43 -2 2 -19 -7
-38 -20z"/>
<path d="M13228 6592 c11 -7 10 -12 -3 -26 -27 -27 -105 -62 -163 -75 -66 -14
-62 -14 -56 7 2 9 -1 7 -7 -5 -17 -32 -6 -50 38 -58 21 -4 43 -11 49 -16 7 -6
18 -1 30 13 13 15 14 19 3 10 -13 -10 -22 -10 -43 -1 l-27 13 38 17 c47 23 67
24 59 4 -8 -23 20 -5 67 40 39 38 47 74 17 82 -12 4 -12 3 -2 -5z"/>
<path d="M12320 6550 c-14 -10 -21 -22 -17 -26 4 -4 20 4 35 19 31 31 19 36
-18 7z"/>
<path d="M4980 6549 c-14 -6 -53 -9 -87 -7 -41 2 -59 0 -52 -7 6 -5 46 -9 91
-8 66 2 79 0 74 -12 -8 -22 7 -18 22 5 22 36 1 48 -48 29z"/>
<path d="M12118 6534 c-17 -13 -26 -24 -18 -24 8 0 25 10 38 23 19 16 24 18
19 5 -4 -11 1 -18 15 -21 11 -3 17 -3 14 0 -3 4 -1 12 4 18 21 25 -38 24 -72
-1z"/>
<path d="M13078 6553 c7 -3 16 -2 19 1 4 3 -2 6 -13 5 -11 0 -14 -3 -6 -6z"/>
<path d="M12450 6523 c0 -18 -77 -63 -112 -65 -46 -4 -64 -30 -30 -42 9 -3 24
-9 32 -13 13 -5 13 -4 1 11 -13 15 -13 19 0 27 8 5 20 9 27 9 20 0 26 2 45 11
22 12 52 58 43 66 -3 3 -6 2 -6 -4z"/>
<path d="M2415 6511 c14 -23 -258 -52 -340 -37 -32 6 -35 9 -23 23 12 15 11
15 -9 4 -27 -14 -30 -37 -5 -50 16 -9 181 -42 212 -43 13 0 51 13 158 58 34
15 42 38 16 48 -8 3 -13 2 -9 -3z m-95 -62 c-56 -37 -66 -39 -116 -22 -59 20
-44 28 59 30 51 2 68 -1 57 -8z"/>
<path d="M12227 6513 c-12 -12 -7 -21 14 -26 12 -3 18 -3 15 0 -3 4 -1 12 5
20 9 10 7 13 -8 13 -11 0 -23 -3 -26 -7z"/>
<path d="M2228 6503 c7 -3 16 -2 19 1 4 3 -2 6 -13 5 -11 0 -14 -3 -6 -6z"/>
<path d="M12035 6501 c-10 -18 17 -23 33 -7 15 15 15 16 -5 16 -12 0 -24 -4
-28 -9z"/>
<path d="M11995 6470 c-3 -5 -24 -15 -45 -21 -22 -7 -40 -16 -40 -21 0 -11 17
-10 25 2 3 6 14 10 24 10 10 0 26 9 36 20 10 11 15 20 12 20 -3 0 -9 -4 -12
-10z"/>
<path d="M4952 6458 c-9 -9 -43 -13 -97 -13 -47 0 -85 -3 -85 -7 0 -4 26 -12
57 -19 44 -10 58 -10 61 -1 2 7 21 12 42 12 34 0 38 -2 33 -22 l-6 -23 22 22
c25 26 27 49 5 57 -20 8 -18 8 -32 -6z"/>
<path d="M2699 6396 c18 -22 -59 -36 -226 -43 -140 -5 -158 -2 -131 25 8 8 8
12 1 12 -17 0 -36 -28 -29 -45 7 -20 45 -34 114 -41 40 -4 53 -3 43 5 -12 8
-10 11 10 15 31 7 66 10 104 7 l30 -2 -24 -19 c-13 -11 -33 -20 -45 -20 -17 0
-18 -2 -6 -10 10 -6 24 -3 45 10 16 10 56 28 88 40 58 22 71 42 45 68 -17 17
-33 15 -19 -2z"/>
<path d="M2515 6390 c-3 -5 -2 -10 4 -10 5 0 13 5 16 10 3 6 2 10 -4 10 -5 0
-13 -4 -16 -10z"/>
<path d="M12976 6366 c17 -13 17 -16 4 -29 -32 -32 -119 -68 -171 -72 -43 -3
-54 -7 -54 -21 0 -17 6 -22 63 -48 30 -14 34 -13 55 7 13 12 44 39 70 60 26
21 50 49 53 63 6 25 -9 54 -29 54 -6 0 -2 -6 9 -14z m-91 -136 c-37 -37 -40
-39 -57 -23 -10 9 -15 20 -11 24 7 6 89 37 103 39 2 0 -13 -18 -35 -40z"/>
<path d="M4890 6345 c-9 -10 -9 -15 -1 -15 6 0 11 4 11 9 0 5 10 12 23 14 21
4 21 4 1 6 -12 0 -27 -6 -34 -14z"/>
<path d="M11856 6345 c-11 -8 -27 -15 -37 -15 -25 0 -44 -26 -24 -33 8 -4 14
-1 12 6 -1 6 7 13 18 15 21 3 77 42 60 41 -5 0 -19 -6 -29 -14z"/>
<path d="M4775 6331 c-9 -15 35 -50 75 -60 19 -5 55 -12 80 -15 44 -6 44 -5
15 8 l-30 13 38 7 c45 8 61 1 54 -26 -7 -27 11 -18 31 15 15 24 15 28 1 42
-14 14 -19 14 -52 0 -47 -19 -180 -21 -196 -2 -6 8 -8 17 -4 20 3 4 4 7 0 7
-3 0 -8 -4 -12 -9z"/>
<path d="M2925 6305 c-16 -8 -23 -14 -14 -15 8 0 24 7 35 15 23 18 18 18 -21
0z"/>
<path d="M2798 6303 c7 -3 16 -2 19 1 4 3 -2 6 -13 5 -11 0 -14 -3 -6 -6z"/>
<path d="M2868 6303 c7 -3 16 -2 19 1 4 3 -2 6 -13 5 -11 0 -14 -3 -6 -6z"/>
<path d="M3100 6300 c18 -11 11 -14 -88 -35 -80 -16 -257 -20 -267 -6 -3 5 2
17 11 25 8 9 11 16 6 16 -16 0 -43 -37 -37 -52 9 -22 47 -37 128 -49 40 -5 84
-15 100 -21 22 -9 31 -7 47 7 10 10 42 28 70 41 28 13 53 30 56 39 7 17 -12
45 -30 45 -6 0 -4 -4 4 -10z m-92 -69 l24 -6 -29 -21 c-26 -19 -31 -19 -76 -6
-54 15 -54 20 -5 32 40 10 56 10 86 1z"/>
<path d="M14425 6288 c-11 -6 -38 -30 -61 -53 -38 -39 -89 -65 -159 -80 l-30
-7 30 -25 c114 -96 185 -167 233 -232 85 -116 206 -236 262 -260 65 -28 133
-20 174 21 26 26 28 34 24 81 -7 71 -42 142 -106 207 -44 45 -52 58 -43 72 42
67 -43 189 -178 257 -63 32 -112 38 -146 19z m210 -70 c52 -36 100 -98 110
-140 5 -21 1 -33 -17 -51 l-24 -24 62 -56 c106 -97 146 -216 89 -272 -39 -40
-58 -33 -109 44 -64 96 -152 283 -170 361 -20 85 -21 170 -2 170 8 0 35 -15
61 -32z m-174 -59 c16 -17 29 -36 29 -43 0 -6 9 -38 20 -70 15 -42 19 -70 14
-102 -7 -49 -15 -53 -43 -25 -11 11 -22 17 -24 14 -7 -6 -201 175 -205 191 -3
14 113 63 151 65 20 1 38 -8 58 -30z"/>
<path d="M11789 6224 c-22 -25 -22 -26 -3 -16 12 6 24 18 28 27 8 21 3 19 -25
-11z"/>
<path d="M4846 6211 c-4 -7 -5 -15 -2 -18 9 -9 19 4 14 18 -4 11 -6 11 -12 0z"/>
<path d="M11713 6194 c-3 -8 -1 -20 6 -27 8 -8 11 -7 11 6 0 9 8 21 18 26 15
9 14 10 -6 11 -12 0 -25 -7 -29 -16z"/>
<path d="M4721 6190 c1 -30 54 -58 139 -74 46 -8 85 -14 88 -12 2 2 -10 7 -27
11 -17 4 -33 11 -36 15 -7 11 29 20 65 17 28 -2 40 -34 18 -48 -10 -7 -10 -9
2 -9 24 0 57 67 43 88 -12 19 -11 19 -68 -2 -22 -8 -75 -15 -117 -16 -68 0
-79 2 -92 22 -10 14 -16 17 -15 8z"/>
<path d="M3290 6160 c-8 -6 -35 -8 -60 -5 -25 2 -36 2 -25 -1 11 -3 32 -9 47
-14 21 -7 30 -4 44 11 19 21 17 24 -6 9z"/>
<path d="M3440 6160 c0 -5 5 -10 12 -10 8 0 8 -3 3 -9 -37 -35 -318 -68 -350
-41 -18 15 -28 9 -19 -13 6 -16 68 -40 133 -51 25 -5 32 -3 28 8 -7 17 54 36
118 36 l48 0 -24 -26 c-13 -14 -33 -30 -44 -34 -17 -7 -17 -9 -3 -9 10 -1 29
9 43 21 14 12 42 31 62 43 47 25 54 56 19 79 -15 9 -26 12 -26 6z"/>
<path d="M3100 6140 c-24 -15 -7 -18 20 -3 14 7 18 13 10 13 -8 0 -22 -4 -30
-10z"/>
<path d="M11717 6102 c-25 -16 -36 -32 -19 -32 10 1 56 40 51 45 -2 2 -17 -4
-32 -13z"/>
<path d="M12735 6109 c-18 -8 -17 -9 4 -5 14 3 32 0 40 -7 14 -11 14 -10 2 6
-15 19 -18 19 -46 6z"/>
<path d="M11640 6061 c0 -11 5 -23 10 -26 6 -3 10 3 10 14 0 10 6 22 13 24 6
3 2 6 -10 6 -16 1 -23 -5 -23 -18z"/>
<path d="M12781 6074 c-4 -35 -211 -97 -211 -63 0 11 -2 11 -10 -1 -19 -29
-10 -49 35 -79 48 -32 58 -31 25 4 l-21 22 28 12 c36 15 73 22 73 13 0 -3 -12
-19 -27 -36 -16 -17 -1 -7 33 22 77 65 87 77 81 99 -3 10 -5 13 -6 7z"/>
<path d="M3695 6059 c-4 -6 -16 -14 -28 -18 -17 -6 -18 -9 -4 -14 10 -4 21 3
31 19 9 13 14 24 12 24 -3 0 -8 -5 -11 -11z"/>
<path d="M3828 6058 c12 -6 21 -16 19 -22 -7 -24 -113 -49 -232 -55 -120 -6
-120 -6 -93 -24 14 -10 64 -25 110 -32 46 -8 94 -17 108 -20 21 -4 3 3 -80 32
-24 8 66 32 116 30 24 0 44 -5 44 -9 0 -4 -4 -8 -8 -8 -4 0 -16 -13 -25 -30
-10 -16 -16 -30 -13 -30 2 0 32 26 66 58 l61 59 -36 31 c-19 18 -41 32 -48 31
-7 0 -2 -5 11 -11z"/>
<path d="M3510 6030 c-22 -22 -26 -40 -9 -40 5 0 8 4 5 8 -9 15 11 34 45 42
32 7 32 8 7 9 -16 1 -37 -8 -48 -19z"/>
<path d="M3608 6043 c6 -2 18 -2 25 0 6 3 1 5 -13 5 -14 0 -19 -2 -12 -5z"/>
<path d="M11715 5999 c-16 -11 -42 -19 -57 -19 -30 0 -37 -21 -18 -50 8 -12
10 -11 10 6 0 21 24 39 39 30 9 -6 68 40 61 47 -3 2 -18 -4 -35 -14z"/>
<path d="M4780 5995 c-7 -9 -8 -15 -2 -15 5 0 12 7 16 15 3 8 4 15 2 15 -2 0
-9 -7 -16 -15z"/>
<path d="M4924 5983 c3 -46 -241 -74 -268 -30 -8 14 -8 20 4 27 10 7 11 10 2
10 -19 0 -25 -26 -12 -50 15 -28 80 -56 150 -64 49 -5 52 -5 32 7 l-23 13 23
10 c26 12 98 13 98 2 0 -51 1 -50 -27 -44 -21 5 -24 4 -13 -4 26 -17 60 -12
60 9 0 10 9 30 20 44 23 29 19 49 -15 71 -30 20 -33 20 -31 -1z"/>
<path d="M1294 5957 c-60 -34 -149 -183 -157 -262 -6 -55 9 -102 34 -110 23
-8 23 -7 -10 -97 -25 -67 -28 -172 -7 -222 17 -41 61 -76 95 -76 42 1 106 35
134 72 43 56 72 134 116 311 28 113 55 198 86 264 25 53 45 97 45 99 0 2 -37
1 -82 -3 -70 -4 -90 -2 -131 16 -55 24 -92 26 -123 8z m286 -67 c0 -6 -18 -52
-40 -104 -22 -51 -40 -99 -40 -107 0 -7 -10 -23 -22 -36 -14 -15 -17 -23 -8
-23 16 0 -19 -29 -35 -30 -16 0 -53 79 -64 135 -9 49 0 141 17 156 18 18 192
26 192 9z m-296 -100 c37 -113 42 -280 14 -483 -11 -85 -26 -99 -80 -78 -47
18 -63 56 -63 146 0 69 5 89 33 149 17 37 32 70 32 72 0 2 -11 4 -25 4 -68 0
-59 146 16 252 l22 30 18 -23 c10 -13 25 -44 33 -69z"/>
<path d="M4248 5923 c7 -3 16 -2 19 1 4 3 -2 6 -13 5 -11 0 -14 -3 -6 -6z"/>
<path d="M11752 5913 c-13 -9 -38 -17 -55 -17 -25 -1 -33 -6 -35 -22 -2 -11 4
-27 13 -34 13 -11 14 -10 9 5 -8 20 13 37 37 30 8 -3 28 8 44 25 31 32 24 39
-13 13z"/>
<path d="M4205 5912 c-5 -4 -16 -15 -24 -24 -12 -16 -11 -18 3 -18 9 0 16 7
16 15 0 7 8 19 18 24 9 6 13 10 7 11 -5 0 -14 -4 -20 -8z"/>
<path d="M4078 5893 c6 -2 18 -2 25 0 6 3 1 5 -13 5 -14 0 -19 -2 -12 -5z"/>
<path d="M4022 5878 c-19 -19 -14 -53 11 -75 24 -23 58 -34 177 -57 41 -8 84
-18 95 -21 17 -5 24 1 38 29 9 20 21 36 27 36 5 0 16 13 25 29 13 27 13 31 -4
52 -17 22 -19 22 -35 6 -33 -33 -145 -58 -242 -55 -94 3 -108 12 -76 51 17 19
3 24 -16 5z m318 -85 c0 -2 -7 -17 -15 -33 -13 -25 -19 -28 -39 -20 -13 5 -43
14 -66 20 -39 11 -41 12 -23 25 10 7 32 15 48 17 34 3 95 -2 95 -9z"/>
<path d="M12538 5872 c9 -10 19 -17 21 -16 6 5 -20 34 -30 34 -5 0 -1 -8 9
-18z"/>
<path d="M12408 5853 c6 -2 18 -2 25 0 6 3 1 5 -13 5 -14 0 -19 -2 -12 -5z"/>
<path d="M12526 5818 c-78 -44 -193 -58 -179 -22 3 8 3 14 0 14 -3 0 -11 -16
-17 -36 -12 -35 -11 -37 28 -74 41 -39 67 -45 31 -7 -16 18 -17 23 -5 35 7 8
31 16 52 19 l39 5 -30 -33 c-25 -27 -21 -25 23 11 72 58 111 117 58 88z"/>
<path d="M11736 5759 c-22 -12 -47 -18 -61 -15 -28 7 -40 -24 -19 -51 12 -17
13 -17 14 -1 0 10 9 22 19 28 27 14 31 13 24 -7 -3 -10 13 0 36 22 56 53 54
59 -13 24z"/>
<path d="M4857 5750 c18 -4 44 -15 59 -25 30 -20 27 -24 -44 -56 -29 -12 -79
-21 -144 -26 -91 -6 -102 -4 -114 12 -22 29 -17 45 19 61 l32 15 -30 -6 c-56
-11 -64 -46 -21 -93 28 -31 74 -50 144 -58 31 -3 84 -15 117 -25 75 -24 75
-24 75 4 0 12 9 39 20 60 11 20 20 45 20 56 0 32 -96 92 -143 90 -16 -1 -13
-3 10 -9z m82 -142 c-5 -9 -9 -26 -9 -37 0 -25 2 -25 -68 -5 -90 24 -85 22
-69 38 14 14 60 22 123 21 27 0 30 -3 23 -17z"/>
<path d="M4763 5730 c-3 -11 -10 -20 -17 -20 -6 0 -4 -5 4 -10 22 -14 30 -12
24 5 -4 8 -1 22 6 30 10 12 10 15 0 15 -6 0 -14 -9 -17 -20z"/>
<path d="M11785 5639 c-24 -12 -52 -18 -72 -15 -39 6 -51 -19 -31 -64 15 -35
29 -40 21 -9 -6 23 18 49 45 49 12 0 12 -3 1 -17 -12 -15 -12 -16 1 -8 24 13
61 48 71 68 5 9 8 17 7 16 -2 0 -21 -9 -43 -20z"/>
<path d="M12226 5567 c3 -10 9 -15 12 -12 3 3 0 11 -7 18 -10 9 -11 8 -5 -6z"/>
<path d="M12126 5545 c4 -8 11 -15 16 -15 6 0 5 6 -2 15 -7 8 -14 15 -16 15
-2 0 -1 -7 2 -15z"/>
<path d="M12230 5527 c0 -36 -167 -77 -186 -46 -4 8 -9 7 -15 -2 -15 -24 -9
-53 19 -95 l28 -42 82 77 c55 51 82 84 82 99 0 12 -2 22 -5 22 -3 0 -5 -6 -5
-13z m-94 -98 c6 -11 -51 -77 -60 -68 -2 2 -7 16 -11 30 -5 20 -2 28 17 37 30
14 45 14 54 1z"/>
<path d="M11858 5513 c7 -3 16 -2 19 1 4 3 -2 6 -13 5 -11 0 -14 -3 -6 -6z"/>
<path d="M11796 5487 c3 -10 9 -15 12 -12 3 3 0 11 -7 18 -10 9 -11 8 -5 -6z"/>
<path d="M11830 5439 c-39 -22 -110 -26 -110 -6 -1 6 -8 -1 -16 -16 -13 -25
-13 -31 0 -59 9 -17 16 -37 16 -45 0 -8 4 -12 9 -8 6 3 6 17 1 34 -9 32 1 42
49 47 23 3 23 3 5 -18 -19 -20 -19 -21 1 -10 31 18 60 45 79 75 21 32 14 33
-34 6z"/>
<path d="M11818 5253 c6 -2 18 -2 25 0 6 3 1 5 -13 5 -14 0 -19 -2 -12 -5z"/>
<path d="M11937 5233 c6 -39 -14 -60 -69 -75 -56 -14 -104 -2 -102 25 3 31
-13 18 -26 -23 -12 -35 -11 -44 9 -90 12 -28 19 -55 16 -60 -12 -19 5 -9 39
23 19 17 54 47 77 66 22 19 48 49 55 67 15 37 19 94 6 94 -5 0 -7 -12 -5 -27z
m-121 -172 c-20 -19 -37 -33 -39 -30 -2 2 -7 18 -10 34 -5 25 -2 33 16 41 15
7 30 7 45 0 l23 -10 -35 -35z"/>
<path d="M11851 5214 c0 -11 3 -14 6 -6 3 7 2 16 -1 19 -3 4 -6 -2 -5 -13z"/>
<path d="M333 3 c186 -2 488 -2 670 0 183 1 31 2 -338 2 -369 0 -518 -1 -332
-2z"/>
</g>
</svg>
